<?xml version="1.0" encoding="utf-8"?>
<!-- Generator: Adobe Illustrator 23.0.3, SVG Export Plug-In . SVG Version: 6.00 Build 0)  -->
<svg version="1.1"
	 id="Layer_1" xmlns:cc="http://creativecommons.org/ns#" xmlns:dc="http://purl.org/dc/elements/1.1/" xmlns:inkscape="http://www.inkscape.org/namespaces/inkscape" xmlns:rdf="http://www.w3.org/1999/02/22-rdf-syntax-ns#" xmlns:sodipodi="http://sodipodi.sourceforge.net/DTD/sodipodi-0.dtd" xmlns:svg="http://www.w3.org/2000/svg"
	 xmlns="http://www.w3.org/2000/svg" xmlns:xlink="http://www.w3.org/1999/xlink" x="0px" y="0px" viewBox="0 0 100 93.3"
	 style="enable-background:new 0 0 100 93.3;" xml:space="preserve">
<style type="text/css">
	.st0{fill:#FFFFFF;}
</style>
<g transform="translate(0,-952.36218)">
	<path class="st0" d="M38.7,960.9c-0.1,0-0.1,0-0.2,0.1c-15,6-25.5,20.5-25.5,37.5c0,22.3,18.3,40.5,40.9,40.5
		c13.5,0,25.5-6.5,32.9-16.5c0.3-0.4,0.3-1.1-0.2-1.4c-0.3-0.2-0.7-0.3-1-0.1c-4.5,1.8-9.5,2.8-14.7,2.8
		c-21.5,0-38.9-17.2-38.9-38.5c0-8.5,2.8-16.4,7.6-22.8c0.3-0.4,0.3-1.1-0.2-1.4C39.2,961,39,960.9,38.7,960.9L38.7,960.9z"/>
</g>
</svg>
