<?xml version="1.0" encoding="utf-8"?>
<!-- Generator: Adobe Illustrator 23.0.3, SVG Export Plug-In . SVG Version: 6.00 Build 0)  -->
<svg version="1.1" id="Layer_1" xmlns="http://www.w3.org/2000/svg" xmlns:xlink="http://www.w3.org/1999/xlink" x="0px" y="0px"
	 viewBox="0 0 100 104.6" style="enable-background:new 0 0 100 104.6;" xml:space="preserve">
<style type="text/css">
	.st0{fill:#FFFFFF;}
</style>
<g>
	<path class="st0" d="M74,27.1c-0.3,0-0.6-0.1-0.9-0.4c-0.5-0.5-0.5-1.3,0-1.8l7.8-7.9c0.5-0.5,1.3-0.5,1.8,0s0.5,1.3,0,1.8
		l-7.8,7.9C74.6,26.9,74.3,27.1,74,27.1z"/>
	<path class="st0" d="M74,27.1c-0.3,0-0.6-0.1-0.9-0.4c-0.5-0.5-0.5-1.3,0-1.8l7.8-7.9c0.5-0.5,1.3-0.5,1.8,0s0.5,1.3,0,1.8
		l-7.8,7.9C74.6,26.9,74.3,27.1,74,27.1z"/>
	<path class="st0" d="M95.3,51.8H83.6c-0.7,0-1.3-0.6-1.3-1.3s0.6-1.3,1.3-1.3h11.7c0.7,0,1.3,0.6,1.3,1.3S96,51.8,95.3,51.8z"/>
	<path class="st0" d="M95.3,51.8H83.6c-0.7,0-1.3-0.6-1.3-1.3s0.6-1.3,1.3-1.3h11.7c0.7,0,1.3,0.6,1.3,1.3S96,51.8,95.3,51.8z"/>
	<path class="st0" d="M81.8,83.4c-0.3,0-0.6-0.1-0.9-0.4l-7.8-7.9c-0.5-0.5-0.5-1.3,0-1.8s1.3-0.5,1.8,0l7.8,7.9
		c0.5,0.5,0.5,1.3,0,1.8C82.4,83.2,82.1,83.4,81.8,83.4z"/>
	<path class="st0" d="M81.8,83.4c-0.3,0-0.6-0.1-0.9-0.4l-7.8-7.9c-0.5-0.5-0.5-1.3,0-1.8s1.3-0.5,1.8,0l7.8,7.9
		c0.5,0.5,0.5,1.3,0,1.8C82.4,83.2,82.1,83.4,81.8,83.4z"/>
	<path class="st0" d="M50.6,97c-0.7,0-1.3-0.6-1.3-1.3V83.9c0-0.7,0.6-1.3,1.3-1.3s1.3,0.6,1.3,1.3v11.8C51.8,96.4,51.3,97,50.6,97z
		"/>
	<path class="st0" d="M50.6,97c-0.7,0-1.3-0.6-1.3-1.3V83.9c0-0.7,0.6-1.3,1.3-1.3s1.3,0.6,1.3,1.3v11.8C51.8,96.4,51.3,97,50.6,97z
		"/>
	<path class="st0" d="M18.2,83.4c-0.3,0-0.6-0.1-0.9-0.4c-0.5-0.5-0.5-1.3,0-1.8l7.8-7.9c0.5-0.5,1.3-0.5,1.8,0s0.5,1.3,0,1.8
		L19.1,83C18.9,83.2,18.5,83.4,18.2,83.4z"/>
	<path class="st0" d="M18.2,83.4c-0.3,0-0.6-0.1-0.9-0.4c-0.5-0.5-0.5-1.3,0-1.8l7.8-7.9c0.5-0.5,1.3-0.5,1.8,0s0.5,1.3,0,1.8
		L19.1,83C18.9,83.2,18.5,83.4,18.2,83.4z"/>
	<path class="st0" d="M16.4,51.8H4.7c-0.7,0-1.3-0.6-1.3-1.3s0.6-1.3,1.3-1.3h11.7c0.7,0,1.3,0.6,1.3,1.3S17.1,51.8,16.4,51.8z"/>
	<path class="st0" d="M16.4,51.8H4.7c-0.7,0-1.3-0.6-1.3-1.3s0.6-1.3,1.3-1.3h11.7c0.7,0,1.3,0.6,1.3,1.3S17.1,51.8,16.4,51.8z"/>
	<path class="st0" d="M26,27.1c-0.3,0-0.6-0.1-0.9-0.4l-7.8-7.9c-0.5-0.5-0.5-1.3,0-1.8s1.3-0.5,1.8,0l7.8,7.9
		c0.5,0.5,0.5,1.3,0,1.8C26.7,27,26.3,27.1,26,27.1z"/>
	<path class="st0" d="M26,27.1c-0.3,0-0.6-0.1-0.9-0.4l-7.8-7.9c-0.5-0.5-0.5-1.3,0-1.8s1.3-0.5,1.8,0l7.8,7.9
		c0.5,0.5,0.5,1.3,0,1.8C26.7,27,26.3,27.1,26,27.1z"/>
	<path class="st0" d="M50,75.5C36.1,75.5,24.8,64,24.8,50S36.1,24.5,50,24.5S75.2,36,75.2,50S63.9,75.5,50,75.5z"/>
	<path class="st0" d="M50.6,17.4c-0.7,0-1.3-0.6-1.3-1.3V4.3c0-0.7,0.6-1.3,1.3-1.3s1.3,0.6,1.3,1.3v11.8
		C51.8,16.8,51.3,17.4,50.6,17.4z"/>
	<path class="st0" d="M50.6,17.4c-0.7,0-1.3-0.6-1.3-1.3V4.3c0-0.7,0.6-1.3,1.3-1.3s1.3,0.6,1.3,1.3v11.8
		C51.8,16.8,51.3,17.4,50.6,17.4z"/>
</g>
</svg>
