<?xml version="1.0" encoding="utf-8"?>
<!-- Generator: Adobe Illustrator 23.0.3, SVG Export Plug-In . SVG Version: 6.00 Build 0)  -->
<svg version="1.1" id="Capa_1" xmlns="http://www.w3.org/2000/svg" xmlns:xlink="http://www.w3.org/1999/xlink" x="0px" y="0px"
	 viewBox="0 0 512 512" style="enable-background:new 0 0 512 512;" xml:space="preserve">
<style type="text/css">
	.st0{fill:#FFFFFF;}
</style>
<g>
	<g>
		<path class="st0" d="M271,30.8V15c0-8.3-6.7-15-15-15c-8.3,0-15,6.7-15,15v15.8C107.4,38.6,0,149.5,0,285c0,8.3,6.7,15,15,15
			s15-6.7,15-15c0-3.7,16-15,45-15s46,11.3,46,15c0,8.3,6.7,15,15,15s15-6.7,15-15c0-3.7,16-15,45-15s45,11.3,45,15v167
			c0,33.1,26.9,60,60,60s60-26.9,60-60c0-8.3-6.7-15-15-15c-8.3,0-15,6.7-15,15c0,16.5-13.5,30-30,30s-30-13.5-30-30V285
			c0-3.7,16-15,45-15c26.2,0,41.1,9,43.9,13.5c0,0.1,0,0.2,0,0.2c-0.6,8.2,5.5,15.5,13.8,16.1c0.4,0,0.8,0,1.2,0
			c0.1,0,0.2-0.1,0.4-0.1c0.3,0,0.5,0.2,0.8,0.2c8.3,0,15-6.7,15-15c0-3.7,16-15,45-15s46,11.3,46,15c0,8.3,6.7,15,15,15
			c8.3,0,15-6.7,15-15C512,149.5,404.6,38.6,271,30.8z"/>
	</g>
</g>
</svg>
