<?xml version="1.0" encoding="utf-8"?>
<!-- Generator: Adobe Illustrator 23.0.3, SVG Export Plug-In . SVG Version: 6.00 Build 0)  -->
<svg version="1.1" id="Capa_1" xmlns="http://www.w3.org/2000/svg" xmlns:xlink="http://www.w3.org/1999/xlink" x="0px" y="0px"
	 viewBox="0 0 512 512" style="enable-background:new 0 0 512 512;" xml:space="preserve">
<style type="text/css">
	.st0{fill:#FFFFFF;}
</style>
<g>
	<g>
		<path class="st0" d="M512,292c0-136.3-105.5-245.2-236-255.2V20c0-11-9-20-20-20s-20,9-20,20v16.8C105.4,46.8,0,155.8,0,292
			c0.2,0.9-2.2,15.3,11.1,21.9c6.8,3.4,14.9,2.6,21-1.9c53.6-40.4,145.5-43.1,203.9-5.5V457c0,8.3-6.7,15-15,15s-15-6.7-15-15v-31
			c0-11-9-20-20-20c-11,0-20,9-20,20v31c0,30.3,24.7,55,55,55s55-24.7,55-55V306.4c58.5-37.6,150.4-34.8,203.9,5.5
			c6,4.5,14.1,5.3,21,1.9C514.1,307.3,511.7,293,512,292z M256,271.7c-61.6-38.8-149.1-41.4-213.6-12.1C57.7,157.5,146,76,256,76
			c110.1,0,198.3,81.5,213.6,183.7C405.2,230.3,317.6,232.9,256,271.7z"/>
	</g>
</g>
</svg>
